# xmcd CD database file
# Generated: Sun Apr 18 15:19:39 2004 by KSCD
# 
# Track frame offsets:
#       150
#       12565
#       27105
#       40040
#       52345
#       65372
#       79937
#       91277
#       105120
#       120317
#       133382
#       147897
#       160502
#       174212
#       186455
#       200872
#       214365
#       227267
#       240377
#       252135
#       263450
#       276367
#       289720
#       303950
#       318320
#
# Disc length: 4417 seconds
#
# Revision: 1
# Processed by: cddbd v1.5PL3 Copyright (c) Steve Scherf et al.
# Submitted via: Kscd 1.3.3
#
DISCID=58113f19
DTITLE=Blind Blake - Complete Works in Chronological Order Volume 2 October 1
DTITLE=927 to May 1928
DYEAR=1900
DGENRE=
TTITLE0=You Gonna Quit Me Blues
TTITLE1=Steel Mill Blues
TTITLE2=Southern Rag
TTITLE3=He's in the Jailhouse Now
TTITLE4=Wabash Rag
TTITLE5=Doggin' Me Mama Blues
TTITLE6=C.C. Pill Blues
TTITLE7=Hot Potatoes
TTITLE8=Southbound Rag
TTITLE9=Pay Daddy Blues
TTITLE10=Elzadie's Policy Blues
TTITLE11=Goodbye Mama Moan
TTITLE12=Tootie Blues
TTITLE13=That Lovin' I crave
TTITLE14=That Lonesome Rave
TTITLE15=Terrible Murder Blues
TTITLE16=Leavin' Gal Blues
TTITLE17=No Dough Blues
TTITLE18=Lead Hearted Blues
TTITLE19=Let Your Love Come Down
TTITLE20=Rubmlin' And Ramblin' Boa Blues
TTITLE21=Bootleg RumDum Blues
TTITLE22=Detroit Bound Blues
TTITLE23=Beulah Land
TTITLE24=Panther Sqall Blues
EXTD=
EXTT0=
EXTT1=
EXTT2=
EXTT3=
EXTT4=
EXTT5=
EXTT6=
EXTT7=
EXTT8=
EXTT9=
EXTT10=
EXTT11=
EXTT12=
EXTT13=
EXTT14=
EXTT15=
EXTT16=
EXTT17=
EXTT18=
EXTT19=
EXTT20=
EXTT21=
EXTT22=
EXTT23=
EXTT24=
PLAYORDER=
